<?xml version="1.0" encoding="UTF-8" standalone="no"?>
<!-- Created with Inkscape (http://www.inkscape.org/) -->

<svg
   xmlns:dc="http://purl.org/dc/elements/1.1/"
   xmlns:cc="http://creativecommons.org/ns#"
   xmlns:rdf="http://www.w3.org/1999/02/22-rdf-syntax-ns#"
   xmlns:svg="http://www.w3.org/2000/svg"
   xmlns="http://www.w3.org/2000/svg"
   xmlns:sodipodi="http://sodipodi.sourceforge.net/DTD/sodipodi-0.dtd"
   xmlns:inkscape="http://www.inkscape.org/namespaces/inkscape"
   width="1600"
   height="1200"
   id="svg4168"
   version="1.1"
   inkscape:version="0.91 r13725"
   viewBox="0 0 1600 1200"
   sodipodi:docname="drawing-ALT.svg">
  <defs
     id="defs4170" />
  <sodipodi:namedview
     id="base"
     pagecolor="#ffffff"
     bordercolor="#666666"
     borderopacity="1.0"
     inkscape:pageopacity="0.0"
     inkscape:pageshadow="2"
     inkscape:zoom="0.6"
     inkscape:cx="918.55091"
     inkscape:cy="776.73117"
     inkscape:current-layer="layer1"
     inkscape:document-units="px"
     showgrid="false"
     showguides="false"
     inkscape:window-width="1366"
     inkscape:window-height="744"
     inkscape:window-x="0"
     inkscape:window-y="24"
     inkscape:window-maximized="1"
     inkscape:guide-bbox="true">
    <sodipodi:guide
       position="412,953"
       orientation="0,1"
       id="guide4210" />
    <sodipodi:guide
       position="410,1026"
       orientation="0,1"
       id="guide4212" />
    <sodipodi:guide
       position="423,1005"
       orientation="0,1"
       id="guide4214" />
    <sodipodi:guide
       position="806.39838,944.27772"
       orientation="1,0"
       id="guide4950" />
  </sodipodi:namedview>
  <metadata
     id="metadata4173">
    <rdf:RDF>
      <cc:Work
         rdf:about="">
        <dc:format>image/svg+xml</dc:format>
        <dc:type
           rdf:resource="http://purl.org/dc/dcmitype/StillImage" />
        <dc:title></dc:title>
      </cc:Work>
    </rdf:RDF>
  </metadata>
  <g
     id="layer1"
     inkscape:label="Layer 1"
     inkscape:groupmode="layer">
    <rect
       style="opacity:1;fill:#33283a;fill-opacity:1;stroke:none;stroke-width:25;stroke-miterlimit:4;stroke-dasharray:none;stroke-opacity:1"
       id="rect4716"
       width="1594.2872"
       height="1193.0629"
       x="-0.47760201"
       y="0.54621625"
       ry="0" />
    <rect
       style="opacity:1;fill:#3e3e3e;fill-opacity:1;stroke:none;stroke-width:25;stroke-miterlimit:4;stroke-dasharray:none;stroke-opacity:1"
       id="rect4720-2-4"
       width="1071.1022"
       height="47.562298"
       x="283.47116"
       y="114.62903"
       ry="11.414945" />
    <rect
       style="opacity:1;fill:#ffffff;fill-opacity:1;stroke:none;stroke-width:25;stroke-miterlimit:4;stroke-dasharray:none;stroke-opacity:1"
       id="rect4720"
       width="513.88281"
       height="702.0191"
       x="838.04993"
       y="157.95747" />
    <rect
       style="opacity:1;fill:#ffea15;fill-opacity:1;stroke:#cecece;stroke-width:1;stroke-miterlimit:4;stroke-dasharray:none;stroke-opacity:1"
       id="rect4720-2"
       width="555.52722"
       height="702.0191"
       x="282.98947"
       y="158.38632" />
    <g
       style="fill:#000000"
       id="g4166"
       transform="translate(633,271.5)">
      <path
         id="path4156"
         d="m -74,29 48,0 0,48 -48,0 0,-48 z M 0,0 24,0 24,24 0,24 0,0 Z M 0,0 24,0 24,24 0,24 0,0 Z"
         inkscape:connector-curvature="0"
         style="fill:none" />
    </g>
    <path
       style="fill:#000000"
       id="path4158"
       d="m 608.57231,-98.836682 11.15508,0 0,2.39037 -11.15508,0 z m 0,-3.983958 11.15508,0 0,2.39037 -11.15508,0 z m 0,7.967908 11.15508,0 0,2.39038 -11.15508,0 z m 12.74866,-16.732618 -28.68449,0 c -1.75294,0 -3.18717,1.43423 -3.18717,3.18717 l 0,20.716568 c 0,1.75294 1.43423,3.18717 3.18717,3.18717 l 28.68449,0 c 1.75294,0 3.18716,-1.43423 3.18716,-3.18717 l 0,-20.716568 c 0,-1.75294 -1.43422,-3.18717 -3.18716,-3.18717 z m 0,23.903738 -14.34225,0 0,-20.716568 14.34225,0 0,20.716568 z"
       inkscape:connector-curvature="0" />
    <g
       id="g4339"
       transform="translate(-233.68161,-329.77499)">
      <g
         inkscape:transform-center-y="-3.4494015"
         inkscape:transform-center-x="-1.3797606"
         transform="matrix(1.3779017,0,0,1.3779017,1298.5495,172)"
         id="g4206"
         style="fill:#000000">
        <path
           style="fill:none"
           inkscape:connector-curvature="0"
           d="M 0,0 24,0 24,24 0,24 Z"
           id="path4196" />
        <path
           sodipodi:nodetypes="sssssssssssccccsssssccsssccccccccccccccccccccc"
           inkscape:connector-curvature="0"
           d="m 24.596813,1.3695799 -15.9401254,0 C 7.1955094,1.3695799 6,2.5650893 6,4.0262675 L 6,19.966393 c 0,1.461178 1.1955094,2.656687 2.6566876,2.656687 l 15.9401254,0 c 1.461178,0 2.656687,-1.195509 2.656687,-2.656687 l 0,-15.9401255 c 0,-1.4611782 -1.195509,-2.6566876 -2.656687,-2.6566876 z M 13.305891,11.332158 c 0,1.102526 -0.88999,1.992516 -1.992516,1.992516 l -1.3283436,0 0,2.656688 -1.9925157,0 0,-7.9700631 3.3208593,0 c 1.102526,0 1.992516,0.8899903 1.992516,1.9925161 z m 6.641718,2.656688 c 0,1.102526 -0.88999,1.992516 -1.992515,1.992516 l -3.320859,0 0,-7.9700631 3.320859,0 c 1.102525,0 1.992515,0.8899903 1.992515,1.9925161 z m 5.313376,-3.985031 -1.992516,0 0,1.328343 1.992516,0 0,1.992516 -1.992516,0 0,2.656688 -1.992515,0 0,-7.9700631 3.985031,0 z m -15.2759536,1.328343 1.3283436,0 0,-1.328343 -1.3283436,0 z m 6.6417196,2.656688 1.328343,0 0,-3.985031 -1.328343,0 z"
           id="path4198" />
      </g>
      <path
         sodipodi:nodetypes="sssssssss"
         inkscape:connector-curvature="0"
         d="m 1294.7604,173.85462 -21.9639,0 c -2.0134,0 -3.6607,1.6473 -3.6607,3.66066 l 0,21.96392 c 0,2.01336 1.6473,3.66066 3.6607,3.66066 l 21.9639,0 c 2.0134,0 3.6607,-1.6473 3.6607,-3.66066 l 0,-21.96392 c 0,-2.01336 -1.6473,-3.66066 -3.6607,-3.66066 z"
         id="path4198-6"
         style="fill:#000000" />
      <g
         transform="matrix(1.2012151,0,0,1.2012151,1254.6202,173.87595)"
         id="g4228"
         style="fill:#000000">
        <path
           style="fill:none"
           inkscape:connector-curvature="0"
           d="M 24,24 0,24 0,0 24,0 24,24 Z"
           id="path4220" />
      </g>
      <path
         inkscape:connector-curvature="0"
         d="m 1275.3887,188.00383 -2.2416,0 0,-2.24157 -1.6812,0 0,6.7247 1.6812,0 0,-2.80196 2.2416,0 0,2.80196 1.6811,0 0,-6.7247 -1.6811,0 0,2.24157 z m 2.8019,-0.5604 1.6812,0 0,5.04353 1.6812,0 0,-5.04353 1.6812,0 0,-1.68117 -5.0436,0 0,1.68117 z m 6.1643,0 1.6812,0 0,5.04353 1.6812,0 0,-5.04353 1.6812,0 0,-1.68117 -5.0436,0 0,1.68117 z m 10.0871,-1.68117 -3.9227,0 0,6.7247 1.6811,0 0,-2.24156 2.2416,0 c 0.8966,0 1.6812,-0.78455 1.6812,-1.68119 l 0,-1.12078 c 0,-0.89662 -0.7846,-1.68117 -1.6812,-1.68117 z m 0,2.80195 -2.2416,0 0,-1.12078 2.2416,0 0,1.12078 z"
         id="path4218"
         style="fill:#ffffff" />
    </g>
    <g
       style="fill:#000000"
       id="g4191"
       transform="translate(368.00562,-68.857654)">
      <path
         id="path4181"
         d="m 15,15 -12,0 0,2 12,0 0,-2 z M 15,7 3,7 3,9 15,9 15,7 Z m -12,6 18,0 0,-2 -18,0 0,2 z m 0,8 18,0 0,-2 -18,0 0,2 z M 3,3 3,5 21,5 21,3 3,3 Z"
         inkscape:connector-curvature="0" />
      <path
         id="path4183"
         d="M 0,0 24,0 24,24 0,24 Z"
         inkscape:connector-curvature="0"
         style="fill:none" />
    </g>
    <g
       style="fill:#000000"
       id="g4207"
       transform="translate(395.30487,-67.765684)">
      <path
         id="path4197"
         d="m 3,21 18,0 0,-2 -18,0 0,2 z m 0,-4 18,0 0,-2 -18,0 0,2 z m 0,-4 18,0 0,-2 -18,0 0,2 z M 3,9 21,9 21,7 3,7 3,9 Z M 3,3 3,5 21,5 21,3 3,3 Z"
         inkscape:connector-curvature="0" />
      <path
         id="path4199"
         d="M 0,0 24,0 24,24 0,24 Z"
         inkscape:connector-curvature="0"
         style="fill:none" />
    </g>
    <g
       style="fill:#000000"
       id="g4223"
       transform="translate(455.36323,-63.397804)">
      <path
         id="path4213"
         d="m 7,15 0,2 10,0 0,-2 -10,0 z m -4,6 18,0 0,-2 -18,0 0,2 z m 0,-8 18,0 0,-2 -18,0 0,2 z M 7,7 7,9 17,9 17,7 7,7 Z M 3,3 3,5 21,5 21,3 3,3 Z"
         inkscape:connector-curvature="0" />
      <path
         id="path4215"
         d="M 0,0 24,0 24,24 0,24 Z"
         inkscape:connector-curvature="0"
         style="fill:none" />
    </g>
    <path
       style="fill:none"
       inkscape:connector-curvature="0"
       d="m 482.2946,-23.756339 24,0 0,24 -24,0 z"
       id="path4245" />
    <path
       style="fill:#000000"
       inkscape:connector-curvature="0"
       d="m 494.7446,-7.756339 2.09,0 -5.11,-13 -1.86,0 -5.11,13 2.09,0 1.12,-3 5.64,0 1.14,3 z m -6.02,-5 2.07,-5.52 2.07,5.52 -4.14,0 z m 15.16,0.59 -8.09,8.09 -3.67,-3.68 -1.41,1.41 5.09,5.09 9.49,-9.5 -1.41,-1.41 z"
       id="path4247" />
    <path
       style="fill:#33283a;fill-opacity:1"
       inkscape:connector-curvature="0"
       d="m 495.59574,178.81546 2.55642,0 0,-2.55642 -2.55642,0 0,2.55642 z m 0,5.11285 2.55642,0 0,-2.55643 -2.55642,0 0,2.55643 z m 0,-10.22569 2.55642,0 0,-2.55642 -2.55642,0 0,2.55642 z m 5.11285,5.11284 17.89495,0 0,-2.55642 -17.89495,0 0,2.55642 z m 0,5.11285 17.89495,0 0,-2.55643 -17.89495,0 0,2.55643 z m 0,-12.78211 0,2.55642 17.89495,0 0,-2.55642 -17.89495,0 z"
       id="path4277" />
    <g
       style="fill:#000000"
       id="g4303"
       transform="translate(558.00842,-61.213863)">
      <path
         id="path4293"
         d="M 0,0 24,0 24,24 0,24 Z"
         inkscape:connector-curvature="0"
         style="fill:none" />
      <path
         id="path4295"
         d="M 20,15.31 23.31,12 20,8.69 20,4 15.31,4 12,0.69 8.69,4 4,4 4,8.69 0.69,12 4,15.31 4,20 8.69,20 12,23.31 15.31,20 20,20 20,15.31 Z M 12,18 12,6 c 3.31,0 6,2.69 6,6 0,3.31 -2.69,6 -6,6 z"
         inkscape:connector-curvature="0" />
    </g>
    <path
       style="fill:none"
       inkscape:connector-curvature="0"
       d="m 1303.8814,172.51022 24,0 0,24 -24,0 z"
       id="path4309" />
    <path
       style="fill:#ffea15;fill-opacity:1"
       inkscape:connector-curvature="0"
       d="m 1313.9714,188.10022 1.41,1.41 5,-5 -5,-5 -1.41,1.41 2.58,2.59 -9.67,0 0,2 9.67,0 -2.58,2.59 z m 8.91,-12.59 -14,0 c -1.11,0 -2,0.9 -2,2 l 0,4 2,0 0,-4 14,0 0,14 -14,0 0,-4 -2,0 0,4 c 0,1.1 0.89,2 2,2 l 14,0 c 1.1,0 2,-0.9 2,-2 l 0,-14 c 0,-1.1 -0.9,-2 -2,-2 z"
       id="path4311" />
    <g
       style="fill:#000000"
       id="g4335"
       transform="matrix(1.3639901,0,0,1.3639901,252.18363,-76.433836)">
      <path
         id="path4325"
         d="m 9,11.75 c -0.69,0 -1.25,0.56 -1.25,1.25 0,0.69 0.56,1.25 1.25,1.25 0.69,0 1.25,-0.56 1.25,-1.25 0,-0.69 -0.56,-1.25 -1.25,-1.25 z m 6,0 c -0.69,0 -1.25,0.56 -1.25,1.25 0,0.69 0.56,1.25 1.25,1.25 0.69,0 1.25,-0.56 1.25,-1.25 0,-0.69 -0.56,-1.25 -1.25,-1.25 z M 12,2 C 6.48,2 2,6.48 2,12 2,17.52 6.48,22 12,22 17.52,22 22,17.52 22,12 22,6.48 17.52,2 12,2 Z m 0,18 C 7.59,20 4,16.41 4,12 4,11.71 4.02,11.42 4.05,11.14 6.41,10.09 8.28,8.16 9.26,5.77 11.07,8.33 14.05,10 17.42,10 18.2,10 18.95,9.91 19.67,9.74 19.88,10.45 20,11.21 20,12 c 0,4.41 -3.59,8 -8,8 z"
         inkscape:connector-curvature="0" />
      <path
         id="path4327"
         d="M 0,0 24,0 24,24 0,24 Z"
         inkscape:connector-curvature="0"
         style="fill:none" />
    </g>
    <path
       style="fill:#33283a;fill-opacity:1"
       inkscape:connector-curvature="0"
       d="m 641.11323,181.87578 3,0 2,-4 0,-6 -6,0 0,6 3,0 z m 8,0 3,0 2,-4 0,-6 -6,0 0,6 3,0 z"
       id="path4366" />
    <g
       style="fill:#000000"
       id="g4424"
       transform="translate(553.20612,-235.82525)">
      <path
         id="path4414"
         d="M 20.54,5.23 19.15,3.55 C 18.88,3.21 18.47,3 18,3 L 6,3 C 5.53,3 5.12,3.21 4.84,3.55 L 3.46,5.23 C 3.17,5.57 3,6.02 3,6.5 L 3,19 c 0,1.1 0.9,2 2,2 l 14,0 c 1.1,0 2,-0.9 2,-2 L 21,6.5 C 21,6.02 20.83,5.57 20.54,5.23 Z M 12,17.5 6.5,12 l 3.5,0 0,-2 4,0 0,2 3.5,0 -5.5,5.5 z M 5.12,5 5.93,4 l 12,0 0.94,1 -13.75,0 z"
         inkscape:connector-curvature="0" />
      <path
         id="path4416"
         d="M 0,0 24,0 24,24 0,24 Z"
         inkscape:connector-curvature="0"
         style="fill:none" />
    </g>
    <path
       style="fill:none"
       inkscape:connector-curvature="0"
       d="m 441.41156,262.37869 26.55306,0 0,-28.44599 -26.55306,0 z"
       id="path4430" />
    <path
       style="fill:none"
       inkscape:connector-curvature="0"
       d="m 531.59509,-23.655909 24,0 0,24 -24,0 z"
       id="path4446" />
    <path
       style="fill:#000000"
       inkscape:connector-curvature="0"
       d="m 543.59509,-19.155909 c -5,0 -9.27,3.11 -11,7.5 1.73,4.39 6,7.5 11,7.5 5,0 9.27,-3.11 11,-7.5 -1.73,-4.39 -6,-7.5 -11,-7.5 z m 0,12.5 c -2.76,0 -5,-2.24 -5,-5 0,-2.76 2.24,-5 5,-5 2.76,0 5,2.24 5,5 0,2.76 -2.24,5 -5,5 z m 0,-8 c -1.66,0 -3,1.34 -3,3 0,1.66 1.34,3 3,3 1.66,0 3,-1.34 3,-3 0,-1.66 -1.34,-3 -3,-3 z"
       id="path4448" />
    <path
       style="fill:#33283a;fill-opacity:1"
       inkscape:connector-curvature="0"
       d="m 694.88722,166.87578 c -5.52,0 -9.99,4.48 -9.99,10 0,5.52 4.47,10 9.99,10 5.53,0 10.01,-4.48 10.01,-10 0,-5.52 -4.48,-10 -10.01,-10 z m 0.01,18 c -4.42,0 -8,-3.58 -8,-8 0,-4.42 3.58,-8 8,-8 4.42,0 8,3.58 8,8 0,4.42 -3.58,8 -8,8 z m 3.5,-9 c 0.83,0 1.5,-0.67 1.5,-1.5 0,-0.83 -0.67,-1.5 -1.5,-1.5 -0.83,0 -1.5,0.67 -1.5,1.5 0,0.83 0.67,1.5 1.5,1.5 z m -7,0 c 0.83,0 1.5,-0.67 1.5,-1.5 0,-0.83 -0.67,-1.5 -1.5,-1.5 -0.83,0 -1.5,0.67 -1.5,1.5 0,0.83 0.67,1.5 1.5,1.5 z m 3.5,6.5 c 2.33,0 4.31,-1.46 5.11,-3.5 l -10.22,0 c 0.8,2.04 2.78,3.5 5.11,3.5 z"
       id="path4496" />
    <path
       style="fill:#33283a;fill-opacity:1"
       inkscape:connector-curvature="0"
       d="m 608.32922,183.87578 0,-14 c 0,-1.1 -0.9,-2 -2,-2 l -14,0 c -1.1,0 -2,0.9 -2,2 l 0,14 c 0,1.1 0.9,2 2,2 l 14,0 c 1.1,0 2,-0.9 2,-2 z m -12.5,-5.5 2.5,3.01 3.5,-4.51 4.5,6 -14,0 3.5,-4.5 z"
       id="path4512" />
    <path
       style="fill:none"
       inkscape:connector-curvature="0"
       d="m 805.86808,172.87578 24,0 0,24 -24,0 z"
       id="path4462" />
    <path
       style="fill:#33283a;fill-opacity:1"
       inkscape:connector-curvature="0"
       d="m 558.54517,167.87578 -14,0 c -1.11,0 -2,0.9 -2,2 l 0,14 c 0,1.1 0.89,2 2,2 l 14,0 c 1.1,0 2,-0.9 2,-2 l 0,-14 c 0,-1.1 -0.9,-2 -2,-2 z m -2,10 -4,0 0,4 -2,0 0,-4 -4,0 0,-2 4,0 0,-4 2,0 0,4 4,0 0,2 z"
       id="path4542" />
    <path
       style="fill:none"
       inkscape:connector-curvature="0"
       d="m 784.86814,193.66335 24,0 0,24 -24,0 0,-24 z"
       id="path4558" />
    <g
       style="fill:#000000"
       id="g4584"
       transform="translate(534.67477,-208.80037)">
      <path
         id="path4574"
         d="m 3,21 18,0 0,-2 -18,0 0,2 z m 0,-4 18,0 0,-2 -18,0 0,2 z m 0,-4 18,0 0,-2 -18,0 0,2 z M 3,9 21,9 21,7 3,7 3,9 Z M 3,3 3,5 21,5 21,3 3,3 Z"
         inkscape:connector-curvature="0" />
      <path
         id="path4576"
         d="M 0,0 24,0 24,24 0,24 Z"
         inkscape:connector-curvature="0"
         style="fill:none" />
    </g>
    <g
       style="fill:#000000"
       id="g4600"
       transform="translate(289.82073,-113.33996)">
      <path
         id="path4590"
         d="m 7,15 0,2 10,0 0,-2 -10,0 z m -4,6 18,0 0,-2 -18,0 0,2 z m 0,-8 18,0 0,-2 -18,0 0,2 z M 7,7 7,9 17,9 17,7 7,7 Z M 3,3 3,5 21,5 21,3 3,3 Z"
         inkscape:connector-curvature="0" />
      <path
         id="path4592"
         d="M 0,0 24,0 24,24 0,24 Z"
         inkscape:connector-curvature="0"
         style="fill:none" />
    </g>
    <g
       style="fill:#000000"
       id="g4616"
       transform="translate(487.57426,-147.80135)">
      <path
         id="path4606"
         d="m 5,17 0,2 14,0 0,-2 -14,0 z m 4.5,-4.2 5,0 0.9,2.2 2.1,0 L 12.75,4 11.25,4 6.5,15 8.6,15 9.5,12.8 Z M 12,5.98 13.87,11 10.13,11 12,5.98 Z"
         inkscape:connector-curvature="0" />
      <path
         id="path4608"
         d="M 0,0 24,0 24,24 0,24 Z"
         inkscape:connector-curvature="0"
         style="fill:none" />
    </g>
    <g
       style="fill:#000000"
       id="g4632"
       transform="translate(452.82799,-178.68693)">
      <path
         id="path4622"
         d="M 0,0 24,0 24,24 0,24 Z"
         inkscape:connector-curvature="0"
         style="fill:none" />
      <path
         id="path4624"
         d="M 12.45,16 14.54,16 9.43,3 7.57,3 2.46,16 l 2.09,0 1.12,-3 5.64,0 1.14,3 z M 6.43,11 8.5,5.48 10.57,11 6.43,11 Z M 21.59,11.59 13.5,19.68 9.83,16 8.42,17.41 13.51,22.5 23,13 21.59,11.59 Z"
         inkscape:connector-curvature="0" />
    </g>
    <path
       style="fill:#33283a;fill-opacity:1"
       id="path4478"
       d="m 309.225,177.66578 c 0.97,-0.67 1.65,-1.77 1.65,-2.79 0,-2.26 -1.75,-4 -4,-4 l -6.25,0 0,14 7.04,0 c 2.09,0 3.71,-1.7 3.71,-3.79 0,-1.52 -0.86,-2.82 -2.15,-3.42 z m -5.6,-4.29 3,0 c 0.83,0 1.5,0.67 1.5,1.5 0,0.83 -0.67,1.5 -1.5,1.5 l -3,0 0,-3 z m 3.5,9 -3.5,0 0,-3 3.5,0 c 0.83,0 1.5,0.67 1.5,1.5 0,0.83 -0.67,1.5 -1.5,1.5 z"
       inkscape:connector-curvature="0" />
    <path
       style="fill:#33283a;fill-opacity:1"
       id="path4229"
       d="m 348.40902,182.87578 0,2 14,0 0,-2 -14,0 z m 4.5,-4.2 5,0 0.9,2.2 2.1,0 -4.75,-11 -1.5,0 -4.75,11 2.1,0 0.9,-2.2 z m 2.5,-6.82 1.87,5.02 -3.74,0 1.87,-5.02 z"
       inkscape:connector-curvature="0" />
    <path
       style="fill:#33283a;fill-opacity:1"
       id="path4384"
       d="m 400.19306,170.87578 0,3 2.21,0 -3.42,8 -2.79,0 0,3 8,0 0,-3 -2.21,0 3.42,-8 2.79,0 0,-3 z"
       inkscape:connector-curvature="0" />
    <path
       style="fill:#33283a;fill-opacity:1"
       id="path4432"
       d="m 446.07924,178.94953 c 0,2.02678 1.53786,3.67428 3.42977,3.67428 l 4.42551,0 0,2.25197 -4.42551,0 c -3.0536,0 -5.53189,-2.65496 -5.53189,-5.92625 0,-3.27129 2.47829,-5.92624 5.53189,-5.92624 l 4.42551,0 0,2.25197 -4.42551,0 c -1.89191,0 -3.42977,1.6475 -3.42977,3.67427 z m 4.53615,-1.18525 8.85102,0 0,2.3705 -8.85102,0 0,-2.3705 z m 9.9574,7.1115 -4.42551,0 0,-2.25197 4.42551,0 c 1.8919,0 3.42977,-1.6475 3.42977,-3.67428 0,-2.02677 -1.53787,-3.67427 -3.42977,-3.67427 l -4.42551,0 0,-2.25197 4.42551,0 c 3.0536,0 5.53188,2.65495 5.53188,5.92624 0,3.27129 -2.47828,5.92625 -5.53188,5.92625 z"
       inkscape:connector-curvature="0" />
    <path
       id="path4352"
       d="m 806.30878,250.72882 24,0 0,24 -24,0 z"
       inkscape:connector-curvature="0"
       style="fill:none" />
    <path
       id="path4398"
       d="m 805.69048,209.75788 24,0 0,24 -24,0 z"
       inkscape:connector-curvature="0"
       style="fill:none" />
    <g
       id="g4952"
       transform="matrix(1.3591008,0,0,1.3591008,-307.28694,-59.438343)"
       style="fill:#33283a;fill-opacity:1">
      <g
         style="stroke:none;fill:#33283a;fill-opacity:1"
         transform="matrix(0.62869957,0,0,0.62869957,308.61157,65.473455)"
         id="g4944">
        <path
           style="opacity:1;fill:#33283a;fill-opacity:1;stroke:none;stroke-width:1;stroke-miterlimit:4;stroke-dasharray:none;stroke-opacity:1"
           id="path4942"
           sodipodi:type="arc"
           sodipodi:cx="813.38977"
           sodipodi:cy="176.92123"
           sodipodi:rx="17.788786"
           sodipodi:ry="17.788786"
           sodipodi:start="3.1502495"
           sodipodi:end="3.1460607"
           sodipodi:open="true"
           d="m 795.60165,176.76724 a 17.788786,17.788786 0 0 1 17.92349,-17.63428 17.788786,17.788786 0 0 1 17.65303,17.90501 17.788786,17.788786 0 0 1 -17.88651,17.67178 17.788786,17.788786 0 0 1 -17.6905,-17.868" />
        <path
           style="fill:#ffea15;fill-opacity:1;stroke:none"
           inkscape:connector-curvature="0"
           d="m 820.82198,177.85578 c 0.04,-0.32 0.07,-0.64 0.07,-0.98 0,-0.34 -0.03,-0.66 -0.07,-0.98 l 2.11,-1.65 c 0.19,-0.15 0.24,-0.42 0.12,-0.64 l -2,-3.46 c -0.12,-0.22 -0.39,-0.3 -0.61,-0.22 l -2.49,1 c -0.52,-0.4 -1.08,-0.73 -1.69,-0.98 l -0.38,-2.65 c -0.03,-0.24 -0.24,-0.42 -0.49,-0.42 l -4,0 c -0.25,0 -0.46,0.18 -0.49,0.42 l -0.38,2.65 c -0.61,0.25 -1.17,0.59 -1.69,0.98 l -2.49,-1 c -0.23,-0.09 -0.49,0 -0.61,0.22 l -2,3.46 c -0.13,0.22 -0.07,0.49 0.12,0.64 l 2.11,1.65 c -0.04,0.32 -0.07,0.65 -0.07,0.98 0,0.33 0.03,0.66 0.07,0.98 l -2.11,1.65 c -0.19,0.15 -0.24,0.42 -0.12,0.64 l 2,3.46 c 0.12,0.22 0.39,0.3 0.61,0.22 l 2.49,-1 c 0.52,0.4 1.08,0.73 1.69,0.98 l 0.38,2.65 c 0.03,0.24 0.24,0.42 0.49,0.42 l 4,0 c 0.25,0 0.46,-0.18 0.49,-0.42 l 0.38,-2.65 c 0.61,-0.25 1.17,-0.59 1.69,-0.98 l 2.49,1 c 0.23,0.09 0.49,0 0.61,-0.22 l 2,-3.46 c 0.12,-0.22 0.07,-0.49 -0.12,-0.64 l -2.11,-1.65 z m -7.43,2.52 c -1.93,0 -3.5,-1.57 -3.5,-3.5 0,-1.93 1.57,-3.5 3.5,-3.5 1.93,0 3.5,1.57 3.5,3.5 0,1.93 -1.57,3.5 -3.5,3.5 z"
           id="path4464" />
      </g>
      <g
         id="g4962"
         style="fill:#33283a;fill-opacity:1">
        <rect
           style="opacity:1;fill:#33283a;fill-opacity:1;stroke:none;stroke-width:1;stroke-miterlimit:4;stroke-dasharray:none;stroke-opacity:1"
           id="rect4948"
           width="26.890112"
           height="83.78466"
           x="806.54431"
           y="186.75418"
           ry="12.398275"
           rx="13.445056" />
        <g
           id="g4935"
           transform="matrix(0.64959209,0,0,0.64959209,288.62304,57.729087)"
           style="fill:#ffea15;fill-opacity:1">
          <path
             inkscape:connector-curvature="0"
             d="m 812.30878,250.99997 c -1.1,0 -1.99,0.9 -1.99,2 l -0.01,16 c 0,1.1 0.89,2 1.99,2 l 12.01,0 c 1.1,0 2,-0.9 2,-2 l 0,-12 -6,-6 -8,0 z m 7,7 0,-5.5 5.5,5.5 -5.5,0 z"
             id="path4350"
             style="fill:#ffea15;fill-opacity:1" />
          <path
             inkscape:connector-curvature="0"
             d="m 822.69048,212.75788 -12,0 c -1.11,0 -2,0.9 -2,2 l 0,14 c 0,1.1 0.89,2 2,2 l 14,0 c 1.1,0 2,-0.9 2,-2 l 0,-12 -4,-4 z m -5,16 c -1.66,0 -3,-1.34 -3,-3 0,-1.66 1.34,-3 3,-3 1.66,0 3,1.34 3,3 0,1.66 -1.34,3 -3,3 z m 3,-10 -10,0 0,-4 10,0 0,4 z"
             id="path4400"
             style="fill:#ffea15;fill-opacity:1" />
          <path
             inkscape:connector-curvature="0"
             d="m 818.30952,291.24213 c -4.97,0 -9,4.03 -9,9 0,4.97 4.03,9 9,9 0.83,0 1.5,-0.67 1.5,-1.5 0,-0.39 -0.15,-0.74 -0.39,-1.01 -0.23,-0.26 -0.38,-0.61 -0.38,-0.99 0,-0.83 0.67,-1.5 1.5,-1.5 l 1.77,0 c 2.76,0 5,-2.24 5,-5 0,-4.42 -4.03,-8 -9,-8 z m -5.5,9 c -0.83,0 -1.5,-0.67 -1.5,-1.5 0,-0.83 0.67,-1.5 1.5,-1.5 0.83,0 1.5,0.67 1.5,1.5 0,0.83 -0.67,1.5 -1.5,1.5 z m 3,-4 c -0.83,0 -1.5,-0.67 -1.5,-1.5 0,-0.83 0.67,-1.5 1.5,-1.5 0.83,0 1.5,0.67 1.5,1.5 0,0.83 -0.67,1.5 -1.5,1.5 z m 5,0 c -0.83,0 -1.5,-0.67 -1.5,-1.5 0,-0.83 0.67,-1.5 1.5,-1.5 0.83,0 1.5,0.67 1.5,1.5 0,0.83 -0.67,1.5 -1.5,1.5 z m 3,4 c -0.83,0 -1.5,-0.67 -1.5,-1.5 0,-0.83 0.67,-1.5 1.5,-1.5 0.83,0 1.5,0.67 1.5,1.5 0,0.83 -0.67,1.5 -1.5,1.5 z"
             id="path4526"
             style="fill:#ffea15;fill-opacity:1" />
        </g>
      </g>
    </g>
    <path
       id="path4528"
       d="m 806.30952,288.24213 24,0 0,24 -24,0 z"
       inkscape:connector-curvature="0"
       style="fill:none" />
    <path
       style="fill:#33283a;fill-opacity:1"
       id="path4560"
       d="m 738.08127,181.47578 -4.6,-4.6 4.6,-4.6 -1.4,-1.4 -6,6 6,6 1.4,-1.4 z m 5.2,0 4.6,-4.6 -4.6,-4.6 1.4,-1.4 6,6 -6,6 -1.4,-1.4 z"
       inkscape:connector-curvature="0" />
    <path
       style="opacity:1;fill:#ffea15;fill-opacity:1;stroke:none;stroke-width:1;stroke-miterlimit:4;stroke-dasharray:none;stroke-opacity:1"
       id="path3351"
       sodipodi:type="arc"
       sodipodi:cx="711.8208"
       sodipodi:cy="-75.149231"
       sodipodi:rx="50.669998"
       sodipodi:ry="50.669998"
       sodipodi:start="3.1502495"
       sodipodi:end="3.1460607"
       sodipodi:open="true"
       d="m 661.1527,-75.587868 a 50.669998,50.669998 0 0 1 51.05368,-50.229892 50.669998,50.669998 0 0 1 50.28333,51.001046 50.669998,50.669998 0 0 1 -50.94837,50.336711 50.669998,50.669998 0 0 1 -50.39003,-50.895623" />
  </g>
</svg>
